<svg width="33" height="33" viewBox="0 0 33 33" fill="none" xmlns="http://www.w3.org/2000/svg">
<path d="M13.3333 0C5.98533 0 0 5.98533 0 13.3333C0 20.6813 5.98533 26.6667 13.3333 26.6667C16.5287 26.6667 19.4632 25.532 21.763 23.6484L29.724 31.6094C29.8468 31.7373 29.994 31.8395 30.1568 31.9099C30.3197 31.9803 30.4949 32.0175 30.6723 32.0193C30.8497 32.0211 31.0256 31.9875 31.1899 31.9204C31.3541 31.8533 31.5033 31.7542 31.6288 31.6288C31.7542 31.5033 31.8533 31.3541 31.9204 31.1899C31.9875 31.0256 32.0211 30.8497 32.0193 30.6723C32.0175 30.4949 31.9803 30.3197 31.9099 30.1568C31.8395 29.994 31.7373 29.8468 31.6094 29.724L23.6484 21.763C25.532 19.4632 26.6667 16.5287 26.6667 13.3333C26.6667 5.98533 20.6813 0 13.3333 0ZM13.3333 2.66667C19.2402 2.66667 24 7.4265 24 13.3333C24 19.2402 19.2402 24 13.3333 24C7.4265 24 2.66667 19.2402 2.66667 13.3333C2.66667 7.4265 7.4265 2.66667 13.3333 2.66667Z" fill="#593C1C"/>
</svg>
