<svg width="35" height="30" viewBox="0 0 35 30" fill="none" xmlns="http://www.w3.org/2000/svg">
<path d="M20.8333 8.33333H18.3333V16.6667L25.4667 20.9L26.6667 18.8833L20.8333 15.4167V8.33333ZM20 0C16.0218 0 12.2064 1.58035 9.3934 4.3934C6.58035 7.20644 5 11.0218 5 15H0L6.6 21.7167L13.3333 15H8.33333C8.33333 11.9058 9.5625 8.93834 11.7504 6.75042C13.9383 4.5625 16.9058 3.33333 20 3.33333C23.0942 3.33333 26.0617 4.5625 28.2496 6.75042C30.4375 8.93834 31.6667 11.9058 31.6667 15C31.6667 18.0942 30.4375 21.0617 28.2496 23.2496C26.0617 25.4375 23.0942 26.6667 20 26.6667C16.7833 26.6667 13.8667 25.35 11.7667 23.2333L9.4 25.6C12.1167 28.3333 15.8333 30 20 30C23.9782 30 27.7936 28.4196 30.6066 25.6066C33.4196 22.7936 35 18.9782 35 15C35 11.0218 33.4196 7.20644 30.6066 4.3934C27.7936 1.58035 23.9782 0 20 0Z" fill="#593C1C"/>
</svg>
